# Blender v2.76 (sub 0) OBJ File: ''
# www.blender.org
mtllib Border.mtl
o Plane.001
v -8.181637 0.000000 -0.949315
v -8.181637 0.000000 -1.014352
v 8.181637 0.000000 -1.014352
v 8.181637 0.000000 -0.949315
v -8.181637 0.019281 -0.949315
v 8.181637 0.019281 -0.949315
v 8.181637 0.019281 -1.014352
v -8.181637 0.019281 -1.014352
vt 0.000174 0.017467
vt 0.999681 0.017469
vt 0.999826 0.034913
vt 0.000319 0.034911
vt 0.999977 0.052357
vt 0.000470 0.052354
vt 0.000023 0.000023
vt 0.999530 0.000025
vn 0.000000 1.000000 0.000000
vn 0.000000 0.000000 -1.000000
vn 0.000000 0.000000 1.000000
usemtl None
s off
f 5/1/1 6/2/1 7/3/1 8/4/1
f 3/5/2 2/6/2 8/4/2 7/3/2
f 1/7/3 4/8/3 6/2/3 5/1/3
