# Blender v2.76 (sub 0) OBJ File: ''
# www.blender.org
mtllib LampCone.mtl
o Cone
v -0.472927 -1.000761 -0.884815
v 0.000000 1.000000 0.000000
v -0.000003 -1.002716 -1.007351
v -0.775459 -1.000782 -0.636475
v -0.960062 -1.000764 -0.291195
v -0.998441 -1.000762 0.098347
v -0.837558 -1.002724 0.559662
v -0.555571 -1.000000 0.831469
v -0.291224 -1.000769 0.960090
v 0.098322 -1.000763 0.998440
v 0.473019 -1.000765 0.884861
v 0.775532 -1.000767 0.636474
v 0.960063 -1.000765 0.291210
v 0.998435 -1.000762 -0.098338
v 0.923880 -1.000000 -0.382683
v 0.775532 -1.000767 -0.636475
v 0.473019 -1.000765 -0.884861
vt 0.084352 0.777735
vt 0.500000 0.500000
vt 0.266399 0.937421
vt 0.009711 0.597552
vt 0.009709 0.402456
vt 0.084352 0.222265
vt 0.266409 0.062572
vt 0.450764 0.000100
vt 0.597534 0.009707
vt 0.777724 0.084344
vt 0.915665 0.222289
vt 0.990294 0.402469
vt 0.990292 0.597536
vt 0.915652 0.777730
vt 0.818668 0.888298
vt 0.691299 0.961849
vt 0.500023 0.999900
vn -0.405100 0.448200 -0.796900
vn -0.000600 1.000000 -0.000600
vn -0.000100 0.449400 -0.893400
vn -0.691000 0.448200 -0.567100
vn -0.855400 0.448200 -0.259600
vn -0.887600 0.448200 0.105900
vn -0.752200 0.449300 0.482000
vn -0.512600 0.447100 0.733000
vn -0.243300 0.448200 0.860200
vn 0.087500 0.448200 0.889600
vn 0.421400 0.448300 0.788300
vn 0.691100 0.448200 0.567000
vn 0.855400 0.448200 0.259500
vn 0.891100 0.448200 -0.070700
vn 0.826300 0.447200 -0.342300
vn 0.680200 0.448200 -0.580000
vn 0.405100 0.448200 -0.796900
usemtl None.001
s 1
f 1/1/1 2/2/2 3/3/3
f 4/4/4 2/2/2 1/1/1
f 5/5/5 2/2/2 4/4/4
f 6/6/6 2/2/2 5/5/5
f 7/7/7 2/2/2 6/6/6
f 8/8/8 2/2/2 7/7/7
f 9/9/9 2/2/2 8/8/8
f 10/10/10 2/2/2 9/9/9
f 11/11/11 2/2/2 10/10/10
f 12/12/12 2/2/2 11/11/11
f 13/13/13 2/2/2 12/12/12
f 14/14/14 2/2/2 13/13/13
f 15/15/15 2/2/2 14/14/14
f 16/16/16 2/2/2 15/15/15
f 17/17/17 2/2/2 16/16/16
f 3/3/3 2/2/2 17/17/17
