# Blender v2.76 (sub 0) OBJ File: ''
# www.blender.org
mtllib Sewerage.mtl
o Plane.005
v -0.138993 -0.006900 1.043874
v -0.138993 -0.006900 0.990064
v 0.138993 -0.006900 0.990064
v 0.138993 -0.006900 1.043874
v -0.138993 0.022247 1.043874
v 0.138993 0.022247 1.043874
v 0.138993 0.022247 0.990064
v -0.138993 0.022247 0.990064
v -0.135842 -0.004163 0.990064
v 0.135842 -0.004163 0.990064
v 0.135842 0.019305 0.990064
v 0.135842 -0.004163 1.000879
v 0.135842 0.019305 1.000879
v -0.135842 0.019305 0.990064
v -0.135842 -0.004163 1.000879
v -0.135842 0.019305 1.000879
vt 0.224060 1.000000
vt 0.000000 1.000000
vt 0.000000 0.000000
vt 0.224060 0.000000
vt 0.448120 0.000000
vt 0.448120 1.000000
vt 0.878635 0.387142
vt 0.878635 0.193571
vt 1.000000 0.193571
vt 1.000000 0.387142
vt 0.878635 0.000000
vt 1.000000 0.000000
vt 0.569485 1.000000
vt 0.569485 0.000000
vt 0.580882 0.011335
vt 0.580882 0.988665
vt 0.923667 0.387142
vt 0.923667 0.471563
vt 0.878635 0.471563
vt 0.690851 1.000000
vt 0.678601 0.988665
vt 0.690851 0.000000
vt 0.678601 0.011335
vt 0.788569 0.000000
vt 0.788569 0.977330
vt 0.690851 0.977330
vt 0.833602 0.000000
vt 0.833602 0.977330
vt 0.923667 0.555985
vt 0.878635 0.555985
vt 0.878635 0.977330
vn 0.000000 -1.000000 -0.000000
vn 0.000000 1.000000 0.000000
vn 1.000000 0.000000 0.000000
vn -1.000000 0.000000 0.000000
vn 0.000000 0.000000 -1.000000
vn 0.000000 0.000000 1.000000
usemtl None
s 1
f 1/1/1 2/2/1 3/3/1 4/4/1
f 5/1/2 6/4/2 7/5/2 8/6/2
f 4/7/3 3/8/3 7/9/3 6/10/3
f 2/8/4 1/11/4 5/12/4 8/9/4
f 3/13/5 2/14/5 9/15/5 10/16/5
f 1/6/6 4/5/6 6/14/6 5/13/6
f 11/17/4 10/18/4 12/19/4 13/7/4
f 7/20/5 3/13/5 10/16/5 11/21/5
f 2/14/5 8/22/5 14/23/5 9/15/5
f 8/22/5 7/20/5 11/21/5 14/23/5
f 12/24/5 15/25/5 16/26/5 13/22/5
f 10/25/2 9/24/2 15/27/2 12/28/2
f 9/18/3 14/29/3 16/30/3 15/19/3
f 14/28/1 11/27/1 13/11/1 16/31/1
