# Blender v2.76 (sub 0) OBJ File: ''
# www.blender.org
mtllib Shop.mtl
o Cube.003_Cube.004
v 2.868467 0.759618 1.475241
v 2.868467 0.594397 3.475241
v 2.853975 0.592950 3.489734
v 2.853975 0.760565 1.460749
v 4.868467 0.594397 3.475241
v 4.868467 0.759618 1.475241
v 4.882960 0.760565 1.460749
v 4.882960 0.592950 3.489734
v 2.868467 0.798715 1.475241
v 4.868467 0.798715 1.475241
v 4.882960 0.800228 1.460749
v 2.853975 0.800228 1.460749
v 4.868467 0.624368 3.475241
v 2.868467 0.624368 3.475241
v 2.853975 0.623355 3.489734
v 4.882960 0.623355 3.489734
vt 0.329545 0.328746
vt 0.329545 0.003975
vt 0.331904 0.001619
vt 0.331904 0.331097
vt 0.003987 0.003975
vt 0.003987 0.328746
vt 0.001628 0.331097
vt 0.001628 0.001619
vt 0.337519 0.328576
vt 0.663077 0.328576
vt 0.665437 0.330930
vt 0.335160 0.330929
vt 0.663077 0.003969
vt 0.337519 0.003969
vt 0.335160 0.001619
vt 0.665436 0.001619
vt 0.596581 0.667454
vt 0.596581 0.997140
vt 0.590149 0.996582
vt 0.591650 0.667026
vt 0.609524 0.995467
vt 0.609524 0.667026
vt 0.615980 0.667026
vt 0.615980 0.995467
vt 0.606268 0.667026
vt 0.606268 0.996712
vt 0.601337 0.997140
vt 0.599836 0.667584
vt 0.624185 0.667026
vt 0.624185 0.995467
vt 0.619236 0.995467
vt 0.619236 0.667026
vn 0.017200 -0.996500 -0.082300
vn -0.017200 -0.996500 -0.082300
vn 0.000000 0.994600 0.103800
vn 0.000000 0.997600 0.069700
vn -1.000000 0.000000 0.000000
vn 0.000000 0.000000 -1.000000
vn 1.000000 0.000000 0.000000
vn 0.000000 0.000000 1.000000
vn -0.017200 0.996100 0.086800
vn 0.000000 -0.995100 -0.099400
vn 0.017200 0.996100 0.086800
vn 0.000000 -0.997900 -0.065200
usemtl None
s 1
f 1/1/1 2/2/1 3/3/1 4/4/1
f 5/5/2 6/6/2 7/7/2 8/8/2
f 9/9/3 10/10/3 11/11/3 12/12/3
f 13/13/4 14/14/4 15/15/4 16/16/4
f 15/17/5 12/18/5 4/19/5 3/20/5
f 12/21/6 11/22/6 7/23/6 4/24/6
f 11/25/7 16/26/7 8/27/7 7/28/7
f 16/29/8 15/30/8 3/31/8 8/32/8
f 10/10/9 13/13/9 16/16/9 11/11/9
f 2/2/10 5/5/10 8/8/10 3/3/10
f 14/14/11 9/9/11 12/12/11 15/15/11
f 6/6/12 1/1/12 4/4/12 7/7/12
o Cube.019_Cube.014
v 2.868467 0.816311 3.475241
v 2.868467 1.049097 1.475241
v 2.868467 0.798715 1.475241
v 2.868467 0.624368 3.475241
v 4.868467 1.049097 1.475241
v 4.868467 0.798715 1.475241
v 4.868467 0.816311 3.475241
v 4.868467 0.624368 3.475241
vt 0.173445 0.992625
vt 0.163968 0.666827
vt 0.204571 0.670347
vt 0.204571 0.995323
vt 0.207827 0.990575
vt 0.207827 0.666827
vt 0.248584 0.666827
vt 0.248584 0.990575
vt 0.120110 0.995323
vt 0.129586 0.669525
vt 0.160712 0.666827
vt 0.160713 0.991803
vt 0.283084 0.666827
vt 0.283084 0.990575
vt 0.251839 0.990575
vt 0.251839 0.666827
vn -1.000000 0.000000 0.000000
vn 0.000000 0.000000 -1.000000
vn 1.000000 0.000000 0.000000
vn 0.000000 -0.000000 1.000000
usemtl None
s 1
f 17/33/13 18/34/13 19/35/13 20/36/13
f 18/37/14 21/38/14 22/39/14 19/40/14
f 21/41/15 23/42/15 24/43/15 22/44/15
f 23/45/16 17/46/16 20/47/16 24/48/16
o Cube.018_Cube.013
v 4.868467 0.051750 1.475241
v 4.868467 0.051749 3.475241
v 4.882969 0.050907 3.489743
v 4.882969 0.050908 1.460740
v 2.868467 0.051749 3.475241
v 2.868467 0.051750 1.475241
v 2.853966 0.050908 1.460740
v 2.853966 0.050907 3.489743
v 2.853966 -0.013575 1.460740
v 2.853966 -0.013576 3.489743
v 4.882969 -0.013575 1.460740
v 4.882969 -0.013576 3.489743
v 4.868467 1.049097 1.475241
v 2.868467 1.049097 1.475241
v 2.855588 1.057439 1.462362
v 4.881346 1.057439 1.462362
v 2.868467 0.816311 3.475241
v 4.868467 0.816311 3.475241
v 4.881346 0.821655 3.488121
v 2.855588 0.821655 3.488121
v 4.881346 0.869211 3.488121
v 4.881346 1.119475 1.462362
v 2.855588 1.119475 1.462362
v 2.855588 0.869211 3.488121
vt 0.995839 0.336515
vt 0.670531 0.336515
vt 0.668167 0.334167
vt 0.998192 0.334167
vt 0.670531 0.660263
vt 0.995839 0.660263
vt 0.998192 0.662611
vt 0.668167 0.662610
vt 0.525491 0.995470
vt 0.525491 0.667026
vt 0.535987 0.667026
vt 0.535987 0.995470
vt 0.313844 0.995270
vt 0.313844 0.666827
vt 0.324340 0.666827
vt 0.324340 0.995270
vt 0.286339 0.995270
vt 0.286339 0.666827
vt 0.296836 0.666827
vt 0.296836 0.995270
vt 0.310588 0.666827
vt 0.310588 0.995270
vt 0.300091 0.995270
vt 0.300091 0.666827
vt 0.998372 0.330062
vt 0.668692 0.330062
vt 0.668692 0.001619
vt 0.998372 0.001619
vt 0.662815 0.336329
vt 0.337256 0.336329
vt 0.335160 0.334167
vt 0.664911 0.334167
vt 0.337256 0.661760
vt 0.662815 0.661760
vt 0.664911 0.663789
vt 0.335160 0.663789
vt 0.331379 0.334335
vt 0.331379 0.663589
vt 0.001628 0.663589
vt 0.001628 0.334335
vt 0.562542 0.667970
vt 0.562543 0.998381
vt 0.552521 0.997150
vt 0.554860 0.667026
vt 0.565798 0.994944
vt 0.565798 0.667026
vt 0.575896 0.667026
vt 0.575896 0.994944
vt 0.549265 0.667026
vt 0.549265 0.997437
vt 0.541582 0.998381
vt 0.539243 0.668257
vt 0.586893 0.667026
vt 0.586893 0.994944
vt 0.579152 0.994944
vt 0.579152 0.667026
vn 0.058000 0.998300 0.000000
vn -0.058000 0.998300 0.000000
vn 0.000000 0.998300 0.058000
vn 0.000000 0.998300 -0.058000
vn -1.000000 0.000000 0.000000
vn 0.000000 0.000000 -1.000000
vn 1.000000 0.000000 0.000000
vn 0.000000 0.000000 1.000000
vn 0.000000 -1.000000 -0.000000
vn 0.000000 -0.839300 -0.543600
vn 0.000000 -0.923700 0.383200
vn -0.466800 -0.878500 -0.102200
vn 0.466700 -0.878500 -0.102200
vn 0.000000 0.992500 0.122600
usemtl None
s 1
f 25/49/17 26/50/17 27/51/17 28/52/17
f 29/53/18 30/54/18 31/55/18 32/56/18
f 26/50/19 29/53/19 32/56/19 27/51/19
f 30/54/20 25/49/20 28/52/20 31/55/20
f 32/57/21 31/58/21 33/59/21 34/60/21
f 31/61/22 28/62/22 35/63/22 33/64/22
f 28/65/23 27/66/23 36/67/23 35/68/23
f 27/69/24 32/70/24 34/71/24 36/72/24
f 34/73/25 33/74/25 35/75/25 36/76/25
f 37/77/26 38/78/26 39/79/26 40/80/26
f 41/81/27 42/82/27 43/83/27 44/84/27
f 38/78/28 41/81/28 44/84/28 39/79/28
f 42/82/29 37/77/29 40/80/29 43/83/29
f 45/85/30 46/86/30 47/87/30 48/88/30
f 48/89/21 47/90/21 39/91/21 44/92/21
f 47/93/22 46/94/22 40/95/22 39/96/22
f 46/97/23 45/98/23 43/99/23 40/100/23
f 45/101/24 48/102/24 44/103/24 43/104/24
o Cube.020_Cube.015
v 4.868467 0.594397 3.475241
v 2.868467 0.594397 3.475241
v 2.868467 0.051749 3.475241
v 4.868467 0.051749 3.475241
v 4.868467 0.759618 1.475241
v 4.868467 0.051750 1.475241
v 4.201801 0.759618 1.475241
v 4.712502 0.728189 1.475241
v 4.386807 0.728189 1.475241
v 2.868467 0.759618 1.475241
v 2.868467 0.051750 1.475241
v 3.028058 0.728732 1.475241
v 3.028058 0.082636 1.475241
v 3.535134 0.051750 1.475241
v 3.535134 0.759618 1.475241
v 3.646639 0.531000 1.475241
v 3.646639 0.059924 1.475241
v 3.367965 0.728732 1.475241
v 3.367965 0.082636 1.475241
v 3.367965 0.082636 1.515694
v 3.367965 0.728732 1.515694
v 4.712502 0.083179 1.475241
v 4.201801 0.051750 1.475241
v 4.386807 0.083179 1.475241
v 4.712502 0.728189 1.515694
v 4.386807 0.728189 1.515694
v 3.646639 0.531000 1.563094
v 3.646639 0.059924 1.563094
v 4.090296 0.059924 1.475241
v 4.090296 0.531000 1.475241
v 4.090296 0.531000 1.563094
v 4.090296 0.059924 1.563094
v 4.712502 0.083179 1.515694
v 4.386807 0.083179 1.515694
v 3.028058 0.728732 1.515694
v 3.028058 0.082636 1.515694
vt 0.993462 0.665848
vt 0.993462 0.989597
vt 0.905131 0.989597
vt 0.905131 0.665848
vt 0.001628 0.990576
vt 0.028522 0.666827
vt 0.116854 0.666827
vt 0.116854 0.990576
vt 0.786649 0.773764
vt 0.786649 0.665848
vt 0.791765 0.691095
vt 0.791765 0.743816
vt 0.695061 0.989597
vt 0.668167 0.665848
vt 0.783393 0.665848
vt 0.783393 0.989597
vt 0.901875 0.989596
vt 0.786649 0.989596
vt 0.791676 0.963763
vt 0.896847 0.963763
vt 0.901875 0.881680
vt 0.786649 0.881680
vt 0.823863 0.863630
vt 0.900544 0.863630
vt 0.485093 0.851105
vt 0.485093 0.746519
vt 0.491678 0.746519
vt 0.491678 0.851105
vt 0.901875 0.665848
vt 0.896759 0.691095
vt 0.901875 0.773764
vt 0.896759 0.743816
vt 0.393745 0.827396
vt 0.393745 0.774674
vt 0.400318 0.774674
vt 0.400318 0.827396
vt 0.791676 0.908741
vt 0.896847 0.908741
vt 0.627441 0.743281
vt 0.627441 0.667026
vt 0.641741 0.667026
vt 0.641741 0.743281
vt 0.900544 0.791814
vt 0.823863 0.791814
vt 0.450017 0.667026
vt 0.522235 0.667026
vt 0.522235 0.743281
vt 0.450017 0.743281
vt 0.450017 0.818335
vt 0.450017 0.746519
vt 0.464307 0.746519
vt 0.464307 0.818335
vt 0.659298 0.667026
vt 0.659298 0.743281
vt 0.644997 0.743281
vt 0.644997 0.667026
vt 0.467562 0.818335
vt 0.467562 0.746519
vt 0.481837 0.746519
vt 0.481837 0.818335
vt 0.393745 0.667026
vt 0.446762 0.667026
vt 0.446762 0.771437
vt 0.393745 0.771437
vt 0.335160 0.667026
vt 0.390490 0.667026
vt 0.390490 0.771612
vt 0.335160 0.771612
vt 0.514614 0.850929
vt 0.514614 0.746519
vt 0.521199 0.746519
vt 0.521199 0.850929
vt 0.627441 0.801541
vt 0.627441 0.746519
vt 0.634021 0.746519
vt 0.634021 0.801541
vt 0.504774 0.850929
vt 0.504774 0.746519
vt 0.511359 0.746519
vt 0.511359 0.850929
vt 0.654825 0.799241
vt 0.654825 0.746519
vt 0.661405 0.746519
vt 0.661405 0.799240
vt 0.644997 0.801541
vt 0.644997 0.746519
vt 0.651570 0.746519
vt 0.651570 0.801541
vt 0.494933 0.851105
vt 0.494933 0.746519
vt 0.501518 0.746519
vt 0.501518 0.851105
vn 0.000000 0.000000 1.000000
vn 1.000000 0.000000 0.000000
vn -0.000000 0.000000 -1.000000
vn -1.000000 0.000000 0.000000
vn 0.000000 -1.000000 0.000000
vn 0.000000 1.000000 0.000000
usemtl None
s 1
f 49/105/31 50/106/31 51/107/31 52/108/31
f 53/109/32 49/110/32 52/111/32 54/112/32
f 55/113/33 53/114/33 56/115/33 57/116/33
f 50/117/34 58/118/34 59/119/34 51/120/34
f 59/121/33 58/122/33 60/123/33 61/124/33
f 62/125/33 63/126/33 64/127/33 65/128/33
f 66/129/34 67/130/34 68/131/34 69/132/34
f 53/114/33 54/133/33 70/134/33 56/115/33
f 54/133/33 71/135/33 72/136/33 70/134/33
f 71/135/33 55/113/33 57/116/33 72/136/33
f 57/137/35 56/138/35 73/139/35 74/140/35
f 58/122/33 63/126/33 66/141/33 60/123/33
f 62/125/33 59/121/33 61/124/33 67/142/33
f 63/126/33 62/125/33 67/142/33 66/141/33
f 65/143/32 64/144/32 75/145/32 76/146/32
f 55/113/33 71/135/33 77/147/33 78/148/33
f 63/126/33 55/113/33 78/148/33 64/127/33
f 71/135/33 62/125/33 65/128/33 77/147/33
f 75/149/33 79/150/33 80/151/33 76/152/33
f 77/153/36 65/154/36 76/155/36 80/156/36
f 78/157/34 77/158/34 80/159/34 79/160/34
f 64/161/35 78/162/35 79/163/35 75/164/35
f 74/165/33 73/166/33 81/167/33 82/168/33
f 83/169/33 69/170/33 68/171/33 84/172/33
f 56/173/34 70/174/34 81/175/34 73/176/34
f 67/177/36 61/178/36 84/179/36 68/180/36
f 72/181/32 57/182/32 74/183/32 82/184/32
f 70/185/36 72/186/36 82/187/36 81/188/36
f 60/189/35 66/190/35 69/191/35 83/192/35
f 61/193/32 60/194/32 83/195/32 84/196/32
